<svg xmlns="http://www.w3.org/2000/svg" width="1600" height="1000" viewBox="0 0 1600 1000" preserveAspectRatio="xMidYMid slice"><defs><linearGradient id="l67" x1="0" y1="0" x2="0.017" y2="0.629"><stop offset="0" stop-color="#272320"/><stop offset="1" stop-color="#110F0D"/></linearGradient><radialGradient id="r68" cx="0.5" cy="0.35" r="0.8"><stop offset="0" stop-color="#5A5450" stop-opacity="0.3"/><stop offset="0.6" stop-color="#5A5450" stop-opacity="0.075"/><stop offset="1" stop-color="#5A5450" stop-opacity="0"/></radialGradient></defs><rect width="1600" height="1000" fill="url(#l67)"/><rect width="1600" height="1000" fill="url(#r68)"/><g fill="#080706" opacity="0.6"><rect x="-10" y="529.0033084391832" width="153.6583044074457" height="470.9966915608168"/><rect x="147.6583044074457" y="490.2335537291789" width="234.81615489580867" height="509.7664462708211"/><rect x="386.4744593032544" y="644.8678217173832" width="184.66949120340792" height="355.1321782826168"/><rect x="575.1439505066623" y="670.3042139152136" width="134.67707533415148" height="329.6957860847864"/><rect x="713.8210258408138" y="498.6924779099157" width="230.78653562490862" height="501.3075220900843"/><rect x="948.6075614657225" y="514.8388729362509" width="199.2962951090262" height="485.1611270637491"/><rect x="1151.9038565747487" y="707.9665206138677" width="114.84166430787808" height="292.03347938613234"/><rect x="1270.7455208826268" y="610.8272330249195" width="223.97910289985123" height="389.1727669750805"/><rect x="1498.724623782478" y="482.53500443575774" width="211.7755629385181" height="517.4649955642423"/></g><g stroke="#3C3733" stroke-width="3" opacity="0.3" transform="rotate(0 800 500)"><line x1="-1000" y1="-40" x2="-1000" y2="1040"/><line x1="-860" y1="-40" x2="-860" y2="1040"/><line x1="-720" y1="-40" x2="-720" y2="1040"/><line x1="-580" y1="-40" x2="-580" y2="1040"/><line x1="-440" y1="-40" x2="-440" y2="1040"/><line x1="-300" y1="-40" x2="-300" y2="1040"/><line x1="-160" y1="-40" x2="-160" y2="1040"/><line x1="-20" y1="-40" x2="-20" y2="1040"/><line x1="120" y1="-40" x2="120" y2="1040"/><line x1="260" y1="-40" x2="260" y2="1040"/><line x1="400" y1="-40" x2="400" y2="1040"/><line x1="540" y1="-40" x2="540" y2="1040"/><line x1="680" y1="-40" x2="680" y2="1040"/><line x1="820" y1="-40" x2="820" y2="1040"/><line x1="960" y1="-40" x2="960" y2="1040"/><line x1="1100" y1="-40" x2="1100" y2="1040"/><line x1="1240" y1="-40" x2="1240" y2="1040"/><line x1="1380" y1="-40" x2="1380" y2="1040"/><line x1="1520" y1="-40" x2="1520" y2="1040"/><line x1="1660" y1="-40" x2="1660" y2="1040"/><line x1="1800" y1="-40" x2="1800" y2="1040"/><line x1="1940" y1="-40" x2="1940" y2="1040"/><line x1="2080" y1="-40" x2="2080" y2="1040"/><line x1="2220" y1="-40" x2="2220" y2="1040"/><line x1="2360" y1="-40" x2="2360" y2="1040"/><line x1="2500" y1="-40" x2="2500" y2="1040"/></g><filter id="g69"><feTurbulence type="fractalNoise" baseFrequency="0.9" numOctaves="2" stitchTiles="stitch"/><feColorMatrix type="saturate" values="0"/><feComponentTransfer><feFuncA type="linear" slope="0.05"/></feComponentTransfer></filter><rect width="100%" height="100%" filter="url(#g69)" style="mix-blend-mode:overlay"/></svg>