<svg xmlns="http://www.w3.org/2000/svg" width="1600" height="1000" viewBox="0 0 1600 1000" preserveAspectRatio="xMidYMid slice"><defs><linearGradient id="l70" x1="0" y1="0" x2="0.146" y2="0.854"><stop offset="0" stop-color="#110F0D"/><stop offset="1" stop-color="#1A1816"/></linearGradient><radialGradient id="r71" cx="0.4" cy="0.6" r="0.8"><stop offset="0" stop-color="#5A5450" stop-opacity="0.26"/><stop offset="0.6" stop-color="#5A5450" stop-opacity="0.065"/><stop offset="1" stop-color="#5A5450" stop-opacity="0"/></radialGradient></defs><rect width="1600" height="1000" fill="url(#l70)"/><rect width="1600" height="1000" fill="url(#r71)"/><g fill="#080706" opacity="0.65"><rect x="-10" y="480.0264419678199" width="235.96474496364124" height="519.9735580321801"/><rect x="229.96474496364124" y="577.1646493836707" width="167.1033443005153" height="422.83535061632926"/><rect x="401.0680892641565" y="750.3151027349131" width="154.8077247556868" height="249.68489726508685"/><rect x="559.8758140198433" y="537.6079788999045" width="234.97366132417335" height="462.3920211000955"/><rect x="798.8494753440167" y="486.68491444799383" width="183.69027302803585" height="513.3150855520062"/><rect x="986.5397483720526" y="631.5344047342116" width="135.8927294387192" height="368.4655952657884"/><rect x="1126.4324778107718" y="684.5230466692535" width="231.12095888120857" height="315.4769533307464"/><rect x="1361.5534366919803" y="504.3063955559536" width="198.4420203174881" height="495.6936044440464"/><rect x="1563.9954570094685" y="508.1008776082009" width="116.09922084360419" height="491.8991223917991"/></g><g stroke="#3C3733" stroke-width="3" opacity="0.3"><line x1="-20" y1="80" x2="1620" y2="80"/><line x1="-20" y1="240" x2="1620" y2="240"/><line x1="-20" y1="400" x2="1620" y2="400"/><line x1="-20" y1="560" x2="1620" y2="560"/><line x1="-20" y1="720" x2="1620" y2="720"/><line x1="-20" y1="880" x2="1620" y2="880"/></g><filter id="g72"><feTurbulence type="fractalNoise" baseFrequency="0.9" numOctaves="2" stitchTiles="stitch"/><feColorMatrix type="saturate" values="0"/><feComponentTransfer><feFuncA type="linear" slope="0.05"/></feComponentTransfer></filter><rect width="100%" height="100%" filter="url(#g72)" style="mix-blend-mode:overlay"/></svg>