<svg xmlns="http://www.w3.org/2000/svg" width="900" height="1200" viewBox="0 0 900 1200" preserveAspectRatio="xMidYMid slice"><defs><linearGradient id="l31" x1="0" y1="0" x2="0.017" y2="0.629"><stop offset="0" stop-color="#272320"/><stop offset="1" stop-color="#110F0D"/></linearGradient><radialGradient id="r32" cx="0.6" cy="0.35" r="0.8"><stop offset="0" stop-color="#5A5450" stop-opacity="0.3"/><stop offset="0.6" stop-color="#5A5450" stop-opacity="0.075"/><stop offset="1" stop-color="#5A5450" stop-opacity="0"/></radialGradient></defs><rect width="900" height="1200" fill="url(#l31)"/><rect width="900" height="1200" fill="url(#r32)"/><g stroke="#5A5450" stroke-width="3" opacity="0.32" transform="rotate(0 450 600)"><line x1="-1200" y1="-40" x2="-1200" y2="1240"/><line x1="-1140" y1="-40" x2="-1140" y2="1240"/><line x1="-1080" y1="-40" x2="-1080" y2="1240"/><line x1="-1020" y1="-40" x2="-1020" y2="1240"/><line x1="-960" y1="-40" x2="-960" y2="1240"/><line x1="-900" y1="-40" x2="-900" y2="1240"/><line x1="-840" y1="-40" x2="-840" y2="1240"/><line x1="-780" y1="-40" x2="-780" y2="1240"/><line x1="-720" y1="-40" x2="-720" y2="1240"/><line x1="-660" y1="-40" x2="-660" y2="1240"/><line x1="-600" y1="-40" x2="-600" y2="1240"/><line x1="-540" y1="-40" x2="-540" y2="1240"/><line x1="-480" y1="-40" x2="-480" y2="1240"/><line x1="-420" y1="-40" x2="-420" y2="1240"/><line x1="-360" y1="-40" x2="-360" y2="1240"/><line x1="-300" y1="-40" x2="-300" y2="1240"/><line x1="-240" y1="-40" x2="-240" y2="1240"/><line x1="-180" y1="-40" x2="-180" y2="1240"/><line x1="-120" y1="-40" x2="-120" y2="1240"/><line x1="-60" y1="-40" x2="-60" y2="1240"/><line x1="0" y1="-40" x2="0" y2="1240"/><line x1="60" y1="-40" x2="60" y2="1240"/><line x1="120" y1="-40" x2="120" y2="1240"/><line x1="180" y1="-40" x2="180" y2="1240"/><line x1="240" y1="-40" x2="240" y2="1240"/><line x1="300" y1="-40" x2="300" y2="1240"/><line x1="360" y1="-40" x2="360" y2="1240"/><line x1="420" y1="-40" x2="420" y2="1240"/><line x1="480" y1="-40" x2="480" y2="1240"/><line x1="540" y1="-40" x2="540" y2="1240"/><line x1="600" y1="-40" x2="600" y2="1240"/><line x1="660" y1="-40" x2="660" y2="1240"/><line x1="720" y1="-40" x2="720" y2="1240"/><line x1="780" y1="-40" x2="780" y2="1240"/><line x1="840" y1="-40" x2="840" y2="1240"/><line x1="900" y1="-40" x2="900" y2="1240"/><line x1="960" y1="-40" x2="960" y2="1240"/><line x1="1020" y1="-40" x2="1020" y2="1240"/><line x1="1080" y1="-40" x2="1080" y2="1240"/><line x1="1140" y1="-40" x2="1140" y2="1240"/><line x1="1200" y1="-40" x2="1200" y2="1240"/><line x1="1260" y1="-40" x2="1260" y2="1240"/><line x1="1320" y1="-40" x2="1320" y2="1240"/><line x1="1380" y1="-40" x2="1380" y2="1240"/><line x1="1440" y1="-40" x2="1440" y2="1240"/><line x1="1500" y1="-40" x2="1500" y2="1240"/><line x1="1560" y1="-40" x2="1560" y2="1240"/><line x1="1620" y1="-40" x2="1620" y2="1240"/><line x1="1680" y1="-40" x2="1680" y2="1240"/><line x1="1740" y1="-40" x2="1740" y2="1240"/><line x1="1800" y1="-40" x2="1800" y2="1240"/><line x1="1860" y1="-40" x2="1860" y2="1240"/><line x1="1920" y1="-40" x2="1920" y2="1240"/><line x1="1980" y1="-40" x2="1980" y2="1240"/><line x1="2040" y1="-40" x2="2040" y2="1240"/></g><g stroke="#5A5450" stroke-width="3" opacity="0.26"><line x1="-20" y1="30" x2="920" y2="30"/><line x1="-20" y1="90" x2="920" y2="90"/><line x1="-20" y1="150" x2="920" y2="150"/><line x1="-20" y1="210" x2="920" y2="210"/><line x1="-20" y1="270" x2="920" y2="270"/><line x1="-20" y1="330" x2="920" y2="330"/><line x1="-20" y1="390" x2="920" y2="390"/><line x1="-20" y1="450" x2="920" y2="450"/><line x1="-20" y1="510" x2="920" y2="510"/><line x1="-20" y1="570" x2="920" y2="570"/><line x1="-20" y1="630" x2="920" y2="630"/><line x1="-20" y1="690" x2="920" y2="690"/><line x1="-20" y1="750" x2="920" y2="750"/><line x1="-20" y1="810" x2="920" y2="810"/><line x1="-20" y1="870" x2="920" y2="870"/><line x1="-20" y1="930" x2="920" y2="930"/><line x1="-20" y1="990" x2="920" y2="990"/><line x1="-20" y1="1050" x2="920" y2="1050"/><line x1="-20" y1="1110" x2="920" y2="1110"/><line x1="-20" y1="1170" x2="920" y2="1170"/></g><circle cx="216" cy="864" r="252.00000000000003" fill="none" stroke="#967C4F" stroke-width="4" opacity="0.3"/><filter id="g33"><feTurbulence type="fractalNoise" baseFrequency="0.9" numOctaves="2" stitchTiles="stitch"/><feColorMatrix type="saturate" values="0"/><feComponentTransfer><feFuncA type="linear" slope="0.05"/></feComponentTransfer></filter><rect width="100%" height="100%" filter="url(#g33)" style="mix-blend-mode:overlay"/></svg>