<svg xmlns="http://www.w3.org/2000/svg" width="900" height="1200" viewBox="0 0 900 1200" preserveAspectRatio="xMidYMid slice"><defs><linearGradient id="l28" x1="0" y1="0" x2="0.030" y2="0.329"><stop offset="0" stop-color="#1A1816"/><stop offset="1" stop-color="#080706"/></linearGradient><radialGradient id="r29" cx="0.4" cy="0.55" r="0.8"><stop offset="0" stop-color="#7D653F" stop-opacity="0.26"/><stop offset="0.6" stop-color="#7D653F" stop-opacity="0.065"/><stop offset="1" stop-color="#7D653F" stop-opacity="0"/></radialGradient></defs><rect width="900" height="1200" fill="url(#l28)"/><rect width="900" height="1200" fill="url(#r29)"/><g fill="none" stroke="#3C3733" stroke-width="6" opacity="0.42"><path d="M 157.5897022404735 -60 C 194.6803659122316 360, 120.49903856871542 840, 157.5897022404735 1260"/><path d="M 260.7610146491591 -60 C 174.6638631848422 360, 346.85816611347605 840, 260.7610146491591 1260"/><path d="M 364.1520490872703 -60 C 349.24767329692247 360, 379.05642487761816 840, 364.1520490872703 1260"/><path d="M 488.54938422582114 -60 C 578.4872292131338 360, 398.61153923850856 840, 488.54938422582114 1260"/><path d="M 635.4265027473601 -60 C 627.1548862268688 360, 643.6981192678514 840, 635.4265027473601 1260"/><path d="M 785.5890781629492 -60 C 697.7827376708151 360, 873.3954186550834 840, 785.5890781629492 1260"/></g><line x1="-10" y1="936" x2="910" y2="936" stroke="#967C4F" stroke-width="5" stroke-dasharray="14 10" opacity="0.35"/><filter id="g30"><feTurbulence type="fractalNoise" baseFrequency="0.9" numOctaves="2" stitchTiles="stitch"/><feColorMatrix type="saturate" values="0"/><feComponentTransfer><feFuncA type="linear" slope="0.05"/></feComponentTransfer></filter><rect width="100%" height="100%" filter="url(#g30)" style="mix-blend-mode:overlay"/></svg>