<svg xmlns="http://www.w3.org/2000/svg" width="1200" height="1500" viewBox="0 0 1200 1500" preserveAspectRatio="xMidYMid slice"><defs><linearGradient id="l7" x1="0" y1="0" x2="0.250" y2="0.933"><stop offset="0" stop-color="#272320"/><stop offset="1" stop-color="#3C3733"/></linearGradient><radialGradient id="r8" cx="0.42" cy="0.5" r="0.8"><stop offset="0" stop-color="#967C4F" stop-opacity="0.3"/><stop offset="0.6" stop-color="#967C4F" stop-opacity="0.075"/><stop offset="1" stop-color="#967C4F" stop-opacity="0"/></radialGradient></defs><rect width="1200" height="1500" fill="url(#l7)"/><rect width="1200" height="1500" fill="url(#r8)"/><g stroke="#5A5450" stroke-width="3" opacity="0.4" transform="rotate(4 600 750)"><line x1="-1500" y1="-40" x2="-1500" y2="1540"/><line x1="-1474" y1="-40" x2="-1474" y2="1540"/><line x1="-1448" y1="-40" x2="-1448" y2="1540"/><line x1="-1422" y1="-40" x2="-1422" y2="1540"/><line x1="-1396" y1="-40" x2="-1396" y2="1540"/><line x1="-1370" y1="-40" x2="-1370" y2="1540"/><line x1="-1344" y1="-40" x2="-1344" y2="1540"/><line x1="-1318" y1="-40" x2="-1318" y2="1540"/><line x1="-1292" y1="-40" x2="-1292" y2="1540"/><line x1="-1266" y1="-40" x2="-1266" y2="1540"/><line x1="-1240" y1="-40" x2="-1240" y2="1540"/><line x1="-1214" y1="-40" x2="-1214" y2="1540"/><line x1="-1188" y1="-40" x2="-1188" y2="1540"/><line x1="-1162" y1="-40" x2="-1162" y2="1540"/><line x1="-1136" y1="-40" x2="-1136" y2="1540"/><line x1="-1110" y1="-40" x2="-1110" y2="1540"/><line x1="-1084" y1="-40" x2="-1084" y2="1540"/><line x1="-1058" y1="-40" x2="-1058" y2="1540"/><line x1="-1032" y1="-40" x2="-1032" y2="1540"/><line x1="-1006" y1="-40" x2="-1006" y2="1540"/><line x1="-980" y1="-40" x2="-980" y2="1540"/><line x1="-954" y1="-40" x2="-954" y2="1540"/><line x1="-928" y1="-40" x2="-928" y2="1540"/><line x1="-902" y1="-40" x2="-902" y2="1540"/><line x1="-876" y1="-40" x2="-876" y2="1540"/><line x1="-850" y1="-40" x2="-850" y2="1540"/><line x1="-824" y1="-40" x2="-824" y2="1540"/><line x1="-798" y1="-40" x2="-798" y2="1540"/><line x1="-772" y1="-40" x2="-772" y2="1540"/><line x1="-746" y1="-40" x2="-746" y2="1540"/><line x1="-720" y1="-40" x2="-720" y2="1540"/><line x1="-694" y1="-40" x2="-694" y2="1540"/><line x1="-668" y1="-40" x2="-668" y2="1540"/><line x1="-642" y1="-40" x2="-642" y2="1540"/><line x1="-616" y1="-40" x2="-616" y2="1540"/><line x1="-590" y1="-40" x2="-590" y2="1540"/><line x1="-564" y1="-40" x2="-564" y2="1540"/><line x1="-538" y1="-40" x2="-538" y2="1540"/><line x1="-512" y1="-40" x2="-512" y2="1540"/><line x1="-486" y1="-40" x2="-486" y2="1540"/><line x1="-460" y1="-40" x2="-460" y2="1540"/><line x1="-434" y1="-40" x2="-434" y2="1540"/><line x1="-408" y1="-40" x2="-408" y2="1540"/><line x1="-382" y1="-40" x2="-382" y2="1540"/><line x1="-356" y1="-40" x2="-356" y2="1540"/><line x1="-330" y1="-40" x2="-330" y2="1540"/><line x1="-304" y1="-40" x2="-304" y2="1540"/><line x1="-278" y1="-40" x2="-278" y2="1540"/><line x1="-252" y1="-40" x2="-252" y2="1540"/><line x1="-226" y1="-40" x2="-226" y2="1540"/><line x1="-200" y1="-40" x2="-200" y2="1540"/><line x1="-174" y1="-40" x2="-174" y2="1540"/><line x1="-148" y1="-40" x2="-148" y2="1540"/><line x1="-122" y1="-40" x2="-122" y2="1540"/><line x1="-96" y1="-40" x2="-96" y2="1540"/><line x1="-70" y1="-40" x2="-70" y2="1540"/><line x1="-44" y1="-40" x2="-44" y2="1540"/><line x1="-18" y1="-40" x2="-18" y2="1540"/><line x1="8" y1="-40" x2="8" y2="1540"/><line x1="34" y1="-40" x2="34" y2="1540"/><line x1="60" y1="-40" x2="60" y2="1540"/><line x1="86" y1="-40" x2="86" y2="1540"/><line x1="112" y1="-40" x2="112" y2="1540"/><line x1="138" y1="-40" x2="138" y2="1540"/><line x1="164" y1="-40" x2="164" y2="1540"/><line x1="190" y1="-40" x2="190" y2="1540"/><line x1="216" y1="-40" x2="216" y2="1540"/><line x1="242" y1="-40" x2="242" y2="1540"/><line x1="268" y1="-40" x2="268" y2="1540"/><line x1="294" y1="-40" x2="294" y2="1540"/><line x1="320" y1="-40" x2="320" y2="1540"/><line x1="346" y1="-40" x2="346" y2="1540"/><line x1="372" y1="-40" x2="372" y2="1540"/><line x1="398" y1="-40" x2="398" y2="1540"/><line x1="424" y1="-40" x2="424" y2="1540"/><line x1="450" y1="-40" x2="450" y2="1540"/><line x1="476" y1="-40" x2="476" y2="1540"/><line x1="502" y1="-40" x2="502" y2="1540"/><line x1="528" y1="-40" x2="528" y2="1540"/><line x1="554" y1="-40" x2="554" y2="1540"/><line x1="580" y1="-40" x2="580" y2="1540"/><line x1="606" y1="-40" x2="606" y2="1540"/><line x1="632" y1="-40" x2="632" y2="1540"/><line x1="658" y1="-40" x2="658" y2="1540"/><line x1="684" y1="-40" x2="684" y2="1540"/><line x1="710" y1="-40" x2="710" y2="1540"/><line x1="736" y1="-40" x2="736" y2="1540"/><line x1="762" y1="-40" x2="762" y2="1540"/><line x1="788" y1="-40" x2="788" y2="1540"/><line x1="814" y1="-40" x2="814" y2="1540"/><line x1="840" y1="-40" x2="840" y2="1540"/><line x1="866" y1="-40" x2="866" y2="1540"/><line x1="892" y1="-40" x2="892" y2="1540"/><line x1="918" y1="-40" x2="918" y2="1540"/><line x1="944" y1="-40" x2="944" y2="1540"/><line x1="970" y1="-40" x2="970" y2="1540"/><line x1="996" y1="-40" x2="996" y2="1540"/><line x1="1022" y1="-40" x2="1022" y2="1540"/><line x1="1048" y1="-40" x2="1048" y2="1540"/><line x1="1074" y1="-40" x2="1074" y2="1540"/><line x1="1100" y1="-40" x2="1100" y2="1540"/><line x1="1126" y1="-40" x2="1126" y2="1540"/><line x1="1152" y1="-40" x2="1152" y2="1540"/><line x1="1178" y1="-40" x2="1178" y2="1540"/><line x1="1204" y1="-40" x2="1204" y2="1540"/><line x1="1230" y1="-40" x2="1230" y2="1540"/><line x1="1256" y1="-40" x2="1256" y2="1540"/><line x1="1282" y1="-40" x2="1282" y2="1540"/><line x1="1308" y1="-40" x2="1308" y2="1540"/><line x1="1334" y1="-40" x2="1334" y2="1540"/><line x1="1360" y1="-40" x2="1360" y2="1540"/><line x1="1386" y1="-40" x2="1386" y2="1540"/><line x1="1412" y1="-40" x2="1412" y2="1540"/><line x1="1438" y1="-40" x2="1438" y2="1540"/><line x1="1464" y1="-40" x2="1464" y2="1540"/><line x1="1490" y1="-40" x2="1490" y2="1540"/><line x1="1516" y1="-40" x2="1516" y2="1540"/><line x1="1542" y1="-40" x2="1542" y2="1540"/><line x1="1568" y1="-40" x2="1568" y2="1540"/><line x1="1594" y1="-40" x2="1594" y2="1540"/><line x1="1620" y1="-40" x2="1620" y2="1540"/><line x1="1646" y1="-40" x2="1646" y2="1540"/><line x1="1672" y1="-40" x2="1672" y2="1540"/><line x1="1698" y1="-40" x2="1698" y2="1540"/><line x1="1724" y1="-40" x2="1724" y2="1540"/><line x1="1750" y1="-40" x2="1750" y2="1540"/><line x1="1776" y1="-40" x2="1776" y2="1540"/><line x1="1802" y1="-40" x2="1802" y2="1540"/><line x1="1828" y1="-40" x2="1828" y2="1540"/><line x1="1854" y1="-40" x2="1854" y2="1540"/><line x1="1880" y1="-40" x2="1880" y2="1540"/><line x1="1906" y1="-40" x2="1906" y2="1540"/><line x1="1932" y1="-40" x2="1932" y2="1540"/><line x1="1958" y1="-40" x2="1958" y2="1540"/><line x1="1984" y1="-40" x2="1984" y2="1540"/><line x1="2010" y1="-40" x2="2010" y2="1540"/><line x1="2036" y1="-40" x2="2036" y2="1540"/><line x1="2062" y1="-40" x2="2062" y2="1540"/><line x1="2088" y1="-40" x2="2088" y2="1540"/><line x1="2114" y1="-40" x2="2114" y2="1540"/><line x1="2140" y1="-40" x2="2140" y2="1540"/><line x1="2166" y1="-40" x2="2166" y2="1540"/><line x1="2192" y1="-40" x2="2192" y2="1540"/><line x1="2218" y1="-40" x2="2218" y2="1540"/><line x1="2244" y1="-40" x2="2244" y2="1540"/><line x1="2270" y1="-40" x2="2270" y2="1540"/><line x1="2296" y1="-40" x2="2296" y2="1540"/><line x1="2322" y1="-40" x2="2322" y2="1540"/><line x1="2348" y1="-40" x2="2348" y2="1540"/><line x1="2374" y1="-40" x2="2374" y2="1540"/><line x1="2400" y1="-40" x2="2400" y2="1540"/><line x1="2426" y1="-40" x2="2426" y2="1540"/><line x1="2452" y1="-40" x2="2452" y2="1540"/><line x1="2478" y1="-40" x2="2478" y2="1540"/><line x1="2504" y1="-40" x2="2504" y2="1540"/><line x1="2530" y1="-40" x2="2530" y2="1540"/><line x1="2556" y1="-40" x2="2556" y2="1540"/><line x1="2582" y1="-40" x2="2582" y2="1540"/><line x1="2608" y1="-40" x2="2608" y2="1540"/><line x1="2634" y1="-40" x2="2634" y2="1540"/><line x1="2660" y1="-40" x2="2660" y2="1540"/><line x1="2686" y1="-40" x2="2686" y2="1540"/></g><g stroke="#5A5450" stroke-width="3" opacity="0.32"><line x1="-20" y1="13" x2="1220" y2="13"/><line x1="-20" y1="39" x2="1220" y2="39"/><line x1="-20" y1="65" x2="1220" y2="65"/><line x1="-20" y1="91" x2="1220" y2="91"/><line x1="-20" y1="117" x2="1220" y2="117"/><line x1="-20" y1="143" x2="1220" y2="143"/><line x1="-20" y1="169" x2="1220" y2="169"/><line x1="-20" y1="195" x2="1220" y2="195"/><line x1="-20" y1="221" x2="1220" y2="221"/><line x1="-20" y1="247" x2="1220" y2="247"/><line x1="-20" y1="273" x2="1220" y2="273"/><line x1="-20" y1="299" x2="1220" y2="299"/><line x1="-20" y1="325" x2="1220" y2="325"/><line x1="-20" y1="351" x2="1220" y2="351"/><line x1="-20" y1="377" x2="1220" y2="377"/><line x1="-20" y1="403" x2="1220" y2="403"/><line x1="-20" y1="429" x2="1220" y2="429"/><line x1="-20" y1="455" x2="1220" y2="455"/><line x1="-20" y1="481" x2="1220" y2="481"/><line x1="-20" y1="507" x2="1220" y2="507"/><line x1="-20" y1="533" x2="1220" y2="533"/><line x1="-20" y1="559" x2="1220" y2="559"/><line x1="-20" y1="585" x2="1220" y2="585"/><line x1="-20" y1="611" x2="1220" y2="611"/><line x1="-20" y1="637" x2="1220" y2="637"/><line x1="-20" y1="663" x2="1220" y2="663"/><line x1="-20" y1="689" x2="1220" y2="689"/><line x1="-20" y1="715" x2="1220" y2="715"/><line x1="-20" y1="741" x2="1220" y2="741"/><line x1="-20" y1="767" x2="1220" y2="767"/><line x1="-20" y1="793" x2="1220" y2="793"/><line x1="-20" y1="819" x2="1220" y2="819"/><line x1="-20" y1="845" x2="1220" y2="845"/><line x1="-20" y1="871" x2="1220" y2="871"/><line x1="-20" y1="897" x2="1220" y2="897"/><line x1="-20" y1="923" x2="1220" y2="923"/><line x1="-20" y1="949" x2="1220" y2="949"/><line x1="-20" y1="975" x2="1220" y2="975"/><line x1="-20" y1="1001" x2="1220" y2="1001"/><line x1="-20" y1="1027" x2="1220" y2="1027"/><line x1="-20" y1="1053" x2="1220" y2="1053"/><line x1="-20" y1="1079" x2="1220" y2="1079"/><line x1="-20" y1="1105" x2="1220" y2="1105"/><line x1="-20" y1="1131" x2="1220" y2="1131"/><line x1="-20" y1="1157" x2="1220" y2="1157"/><line x1="-20" y1="1183" x2="1220" y2="1183"/><line x1="-20" y1="1209" x2="1220" y2="1209"/><line x1="-20" y1="1235" x2="1220" y2="1235"/><line x1="-20" y1="1261" x2="1220" y2="1261"/><line x1="-20" y1="1287" x2="1220" y2="1287"/><line x1="-20" y1="1313" x2="1220" y2="1313"/><line x1="-20" y1="1339" x2="1220" y2="1339"/><line x1="-20" y1="1365" x2="1220" y2="1365"/><line x1="-20" y1="1391" x2="1220" y2="1391"/><line x1="-20" y1="1417" x2="1220" y2="1417"/><line x1="-20" y1="1443" x2="1220" y2="1443"/><line x1="-20" y1="1469" x2="1220" y2="1469"/><line x1="-20" y1="1495" x2="1220" y2="1495"/></g><line x1="-10" y1="930" x2="1210" y2="930" stroke="#C0A77A" stroke-width="5" stroke-dasharray="14 10" opacity="0.5"/><filter id="g9"><feTurbulence type="fractalNoise" baseFrequency="0.9" numOctaves="2" stitchTiles="stitch"/><feColorMatrix type="saturate" values="0"/><feComponentTransfer><feFuncA type="linear" slope="0.05"/></feComponentTransfer></filter><rect width="100%" height="100%" filter="url(#g9)" style="mix-blend-mode:overlay"/></svg>