<svg xmlns="http://www.w3.org/2000/svg" width="2000" height="1125" viewBox="0 0 2000 1125" preserveAspectRatio="xMidYMid slice"><defs><linearGradient id="l1" x1="0" y1="0" x2="0.030" y2="0.329"><stop offset="0" stop-color="#080706"/><stop offset="1" stop-color="#1A1816"/></linearGradient><radialGradient id="r2" cx="0.7" cy="0.3" r="0.8"><stop offset="0" stop-color="#967C4F" stop-opacity="0.24"/><stop offset="0.6" stop-color="#967C4F" stop-opacity="0.060"/><stop offset="1" stop-color="#967C4F" stop-opacity="0"/></radialGradient></defs><rect width="2000" height="1125" fill="url(#l1)"/><rect width="2000" height="1125" fill="url(#r2)"/><path d="M -200 956.25 Q 900 393.75, 2200 675" fill="none" stroke="#7D653F" stroke-width="6" opacity="0.35"/><g stroke="#3C3733" stroke-width="3" opacity="0.16" transform="rotate(8 1000 562.5)"><line x1="-1125" y1="-40" x2="-1125" y2="1165"/><line x1="-1035" y1="-40" x2="-1035" y2="1165"/><line x1="-945" y1="-40" x2="-945" y2="1165"/><line x1="-855" y1="-40" x2="-855" y2="1165"/><line x1="-765" y1="-40" x2="-765" y2="1165"/><line x1="-675" y1="-40" x2="-675" y2="1165"/><line x1="-585" y1="-40" x2="-585" y2="1165"/><line x1="-495" y1="-40" x2="-495" y2="1165"/><line x1="-405" y1="-40" x2="-405" y2="1165"/><line x1="-315" y1="-40" x2="-315" y2="1165"/><line x1="-225" y1="-40" x2="-225" y2="1165"/><line x1="-135" y1="-40" x2="-135" y2="1165"/><line x1="-45" y1="-40" x2="-45" y2="1165"/><line x1="45" y1="-40" x2="45" y2="1165"/><line x1="135" y1="-40" x2="135" y2="1165"/><line x1="225" y1="-40" x2="225" y2="1165"/><line x1="315" y1="-40" x2="315" y2="1165"/><line x1="405" y1="-40" x2="405" y2="1165"/><line x1="495" y1="-40" x2="495" y2="1165"/><line x1="585" y1="-40" x2="585" y2="1165"/><line x1="675" y1="-40" x2="675" y2="1165"/><line x1="765" y1="-40" x2="765" y2="1165"/><line x1="855" y1="-40" x2="855" y2="1165"/><line x1="945" y1="-40" x2="945" y2="1165"/><line x1="1035" y1="-40" x2="1035" y2="1165"/><line x1="1125" y1="-40" x2="1125" y2="1165"/><line x1="1215" y1="-40" x2="1215" y2="1165"/><line x1="1305" y1="-40" x2="1305" y2="1165"/><line x1="1395" y1="-40" x2="1395" y2="1165"/><line x1="1485" y1="-40" x2="1485" y2="1165"/><line x1="1575" y1="-40" x2="1575" y2="1165"/><line x1="1665" y1="-40" x2="1665" y2="1165"/><line x1="1755" y1="-40" x2="1755" y2="1165"/><line x1="1845" y1="-40" x2="1845" y2="1165"/><line x1="1935" y1="-40" x2="1935" y2="1165"/><line x1="2025" y1="-40" x2="2025" y2="1165"/><line x1="2115" y1="-40" x2="2115" y2="1165"/><line x1="2205" y1="-40" x2="2205" y2="1165"/><line x1="2295" y1="-40" x2="2295" y2="1165"/><line x1="2385" y1="-40" x2="2385" y2="1165"/><line x1="2475" y1="-40" x2="2475" y2="1165"/><line x1="2565" y1="-40" x2="2565" y2="1165"/><line x1="2655" y1="-40" x2="2655" y2="1165"/><line x1="2745" y1="-40" x2="2745" y2="1165"/><line x1="2835" y1="-40" x2="2835" y2="1165"/><line x1="2925" y1="-40" x2="2925" y2="1165"/><line x1="3015" y1="-40" x2="3015" y2="1165"/><line x1="3105" y1="-40" x2="3105" y2="1165"/></g><filter id="g3"><feTurbulence type="fractalNoise" baseFrequency="0.9" numOctaves="2" stitchTiles="stitch"/><feColorMatrix type="saturate" values="0"/><feComponentTransfer><feFuncA type="linear" slope="0.05"/></feComponentTransfer></filter><rect width="100%" height="100%" filter="url(#g3)" style="mix-blend-mode:overlay"/></svg>