<svg xmlns="http://www.w3.org/2000/svg" width="1200" height="1500" viewBox="0 0 1200 1500" preserveAspectRatio="xMidYMid slice"><defs><linearGradient id="l79" x1="0" y1="0" x2="0.179" y2="0.883"><stop offset="0" stop-color="#1A1816"/><stop offset="1" stop-color="#3C3733"/></linearGradient><radialGradient id="r80" cx="0.4" cy="0.55" r="0.8"><stop offset="0" stop-color="#967C4F" stop-opacity="0.26"/><stop offset="0.6" stop-color="#967C4F" stop-opacity="0.065"/><stop offset="1" stop-color="#967C4F" stop-opacity="0"/></radialGradient></defs><rect width="1200" height="1500" fill="url(#l79)"/><rect width="1200" height="1500" fill="url(#r80)"/><g stroke="#5A5450" stroke-width="3" opacity="0.35" transform="rotate(0 600 750)"><line x1="-1500" y1="-40" x2="-1500" y2="1540"/><line x1="-1460" y1="-40" x2="-1460" y2="1540"/><line x1="-1420" y1="-40" x2="-1420" y2="1540"/><line x1="-1380" y1="-40" x2="-1380" y2="1540"/><line x1="-1340" y1="-40" x2="-1340" y2="1540"/><line x1="-1300" y1="-40" x2="-1300" y2="1540"/><line x1="-1260" y1="-40" x2="-1260" y2="1540"/><line x1="-1220" y1="-40" x2="-1220" y2="1540"/><line x1="-1180" y1="-40" x2="-1180" y2="1540"/><line x1="-1140" y1="-40" x2="-1140" y2="1540"/><line x1="-1100" y1="-40" x2="-1100" y2="1540"/><line x1="-1060" y1="-40" x2="-1060" y2="1540"/><line x1="-1020" y1="-40" x2="-1020" y2="1540"/><line x1="-980" y1="-40" x2="-980" y2="1540"/><line x1="-940" y1="-40" x2="-940" y2="1540"/><line x1="-900" y1="-40" x2="-900" y2="1540"/><line x1="-860" y1="-40" x2="-860" y2="1540"/><line x1="-820" y1="-40" x2="-820" y2="1540"/><line x1="-780" y1="-40" x2="-780" y2="1540"/><line x1="-740" y1="-40" x2="-740" y2="1540"/><line x1="-700" y1="-40" x2="-700" y2="1540"/><line x1="-660" y1="-40" x2="-660" y2="1540"/><line x1="-620" y1="-40" x2="-620" y2="1540"/><line x1="-580" y1="-40" x2="-580" y2="1540"/><line x1="-540" y1="-40" x2="-540" y2="1540"/><line x1="-500" y1="-40" x2="-500" y2="1540"/><line x1="-460" y1="-40" x2="-460" y2="1540"/><line x1="-420" y1="-40" x2="-420" y2="1540"/><line x1="-380" y1="-40" x2="-380" y2="1540"/><line x1="-340" y1="-40" x2="-340" y2="1540"/><line x1="-300" y1="-40" x2="-300" y2="1540"/><line x1="-260" y1="-40" x2="-260" y2="1540"/><line x1="-220" y1="-40" x2="-220" y2="1540"/><line x1="-180" y1="-40" x2="-180" y2="1540"/><line x1="-140" y1="-40" x2="-140" y2="1540"/><line x1="-100" y1="-40" x2="-100" y2="1540"/><line x1="-60" y1="-40" x2="-60" y2="1540"/><line x1="-20" y1="-40" x2="-20" y2="1540"/><line x1="20" y1="-40" x2="20" y2="1540"/><line x1="60" y1="-40" x2="60" y2="1540"/><line x1="100" y1="-40" x2="100" y2="1540"/><line x1="140" y1="-40" x2="140" y2="1540"/><line x1="180" y1="-40" x2="180" y2="1540"/><line x1="220" y1="-40" x2="220" y2="1540"/><line x1="260" y1="-40" x2="260" y2="1540"/><line x1="300" y1="-40" x2="300" y2="1540"/><line x1="340" y1="-40" x2="340" y2="1540"/><line x1="380" y1="-40" x2="380" y2="1540"/><line x1="420" y1="-40" x2="420" y2="1540"/><line x1="460" y1="-40" x2="460" y2="1540"/><line x1="500" y1="-40" x2="500" y2="1540"/><line x1="540" y1="-40" x2="540" y2="1540"/><line x1="580" y1="-40" x2="580" y2="1540"/><line x1="620" y1="-40" x2="620" y2="1540"/><line x1="660" y1="-40" x2="660" y2="1540"/><line x1="700" y1="-40" x2="700" y2="1540"/><line x1="740" y1="-40" x2="740" y2="1540"/><line x1="780" y1="-40" x2="780" y2="1540"/><line x1="820" y1="-40" x2="820" y2="1540"/><line x1="860" y1="-40" x2="860" y2="1540"/><line x1="900" y1="-40" x2="900" y2="1540"/><line x1="940" y1="-40" x2="940" y2="1540"/><line x1="980" y1="-40" x2="980" y2="1540"/><line x1="1020" y1="-40" x2="1020" y2="1540"/><line x1="1060" y1="-40" x2="1060" y2="1540"/><line x1="1100" y1="-40" x2="1100" y2="1540"/><line x1="1140" y1="-40" x2="1140" y2="1540"/><line x1="1180" y1="-40" x2="1180" y2="1540"/><line x1="1220" y1="-40" x2="1220" y2="1540"/><line x1="1260" y1="-40" x2="1260" y2="1540"/><line x1="1300" y1="-40" x2="1300" y2="1540"/><line x1="1340" y1="-40" x2="1340" y2="1540"/><line x1="1380" y1="-40" x2="1380" y2="1540"/><line x1="1420" y1="-40" x2="1420" y2="1540"/><line x1="1460" y1="-40" x2="1460" y2="1540"/><line x1="1500" y1="-40" x2="1500" y2="1540"/><line x1="1540" y1="-40" x2="1540" y2="1540"/><line x1="1580" y1="-40" x2="1580" y2="1540"/><line x1="1620" y1="-40" x2="1620" y2="1540"/><line x1="1660" y1="-40" x2="1660" y2="1540"/><line x1="1700" y1="-40" x2="1700" y2="1540"/><line x1="1740" y1="-40" x2="1740" y2="1540"/><line x1="1780" y1="-40" x2="1780" y2="1540"/><line x1="1820" y1="-40" x2="1820" y2="1540"/><line x1="1860" y1="-40" x2="1860" y2="1540"/><line x1="1900" y1="-40" x2="1900" y2="1540"/><line x1="1940" y1="-40" x2="1940" y2="1540"/><line x1="1980" y1="-40" x2="1980" y2="1540"/><line x1="2020" y1="-40" x2="2020" y2="1540"/><line x1="2060" y1="-40" x2="2060" y2="1540"/><line x1="2100" y1="-40" x2="2100" y2="1540"/><line x1="2140" y1="-40" x2="2140" y2="1540"/><line x1="2180" y1="-40" x2="2180" y2="1540"/><line x1="2220" y1="-40" x2="2220" y2="1540"/><line x1="2260" y1="-40" x2="2260" y2="1540"/><line x1="2300" y1="-40" x2="2300" y2="1540"/><line x1="2340" y1="-40" x2="2340" y2="1540"/><line x1="2380" y1="-40" x2="2380" y2="1540"/><line x1="2420" y1="-40" x2="2420" y2="1540"/><line x1="2460" y1="-40" x2="2460" y2="1540"/><line x1="2500" y1="-40" x2="2500" y2="1540"/><line x1="2540" y1="-40" x2="2540" y2="1540"/><line x1="2580" y1="-40" x2="2580" y2="1540"/><line x1="2620" y1="-40" x2="2620" y2="1540"/><line x1="2660" y1="-40" x2="2660" y2="1540"/></g><g stroke="#3C3733" stroke-width="7" opacity="0.4" stroke-linecap="square"><line x1="168.00000000000003" y1="300" x2="1022.6776137631794" y2="300"/><line x1="168.00000000000003" y1="405" x2="921.1990407610762" y2="405"/><line x1="168.00000000000003" y1="510" x2="807.2380666292124" y2="510"/><line x1="168.00000000000003" y1="615" x2="1062.9537999621768" y2="615"/><line x1="168.00000000000003" y1="720" x2="675.8571499106822" y2="720"/><line x1="168.00000000000003" y1="825" x2="1006.1472000812046" y2="825"/><line x1="168.00000000000003" y1="930" x2="946.2224043095598" y2="930"/><line x1="168.00000000000003" y1="1035" x2="774.5280682211247" y2="1035"/><line x1="168.00000000000003" y1="1140" x2="1066.8275610757464" y2="1140"/><line x1="168.00000000000003" y1="1245" x2="711.0718414238454" y2="1245"/></g><filter id="g81"><feTurbulence type="fractalNoise" baseFrequency="0.9" numOctaves="2" stitchTiles="stitch"/><feColorMatrix type="saturate" values="0"/><feComponentTransfer><feFuncA type="linear" slope="0.05"/></feComponentTransfer></filter><rect width="100%" height="100%" filter="url(#g81)" style="mix-blend-mode:overlay"/></svg>