<svg xmlns="http://www.w3.org/2000/svg" width="1200" height="1500" viewBox="0 0 1200 1500" preserveAspectRatio="xMidYMid slice"><defs><linearGradient id="l82" x1="0" y1="0" x2="0.030" y2="0.671"><stop offset="0" stop-color="#272320"/><stop offset="1" stop-color="#110F0D"/></linearGradient><radialGradient id="r83" cx="0.6" cy="0.45" r="0.8"><stop offset="0" stop-color="#5A5450" stop-opacity="0.28"/><stop offset="0.6" stop-color="#5A5450" stop-opacity="0.070"/><stop offset="1" stop-color="#5A5450" stop-opacity="0"/></radialGradient></defs><rect width="1200" height="1500" fill="url(#l82)"/><rect width="1200" height="1500" fill="url(#r83)"/><g fill="#080706" opacity="0.45"><rect x="-10" y="739.6308322179738" width="159.89758064968478" height="760.3691677820262"/><rect x="153.89758064968478" y="785.2230986503184" width="165.3931415460714" height="714.7769013496816"/><rect x="323.2907221957562" y="1087.6339219587353" width="81.34589725648419" height="412.3660780412646"/><rect x="408.6366194522404" y="894.9801841818319" width="150.971503422956" height="605.0198158181681"/><rect x="563.6081228751964" y="721.1557046458583" width="171.00528649802294" height="778.8442953541417"/><rect x="738.6134093732194" y="846.9114332527602" width="96.3364842000243" height="653.0885667472398"/><rect x="838.9498935732437" y="1151.6880341925607" width="140.38475099108447" height="348.31196580743915"/><rect x="983.3346445643282" y="822.5097858127747" width="174.55577994037242" height="677.4902141872253"/><rect x="1161.8904245047006" y="725.2631711227633" width="110.75991621963809" height="774.7368288772367"/></g><g stroke="#5A5450" stroke-width="7" opacity="0.4" stroke-linecap="square"><line x1="168.00000000000003" y1="300" x2="956.76223743536" y2="300"/><line x1="168.00000000000003" y1="405" x2="759.5519653786134" y2="405"/><line x1="168.00000000000003" y1="510" x2="1067.684158599029" y2="510"/><line x1="168.00000000000003" y1="615" x2="726.6018023509168" y2="615"/><line x1="168.00000000000003" y1="720" x2="978.0671253019718" y2="720"/><line x1="168.00000000000003" y1="825" x2="978.8110663240485" y2="825"/><line x1="168.00000000000003" y1="930" x2="725.3768445872416" y2="930"/><line x1="168.00000000000003" y1="1035" x2="1067.6360674914167" y2="1035"/><line x1="168.00000000000003" y1="1140" x2="760.7458284355885" y2="1140"/><line x1="168.00000000000003" y1="1245" x2="955.9422193865822" y2="1245"/></g><filter id="g84"><feTurbulence type="fractalNoise" baseFrequency="0.9" numOctaves="2" stitchTiles="stitch"/><feColorMatrix type="saturate" values="0"/><feComponentTransfer><feFuncA type="linear" slope="0.05"/></feComponentTransfer></filter><rect width="100%" height="100%" filter="url(#g84)" style="mix-blend-mode:overlay"/></svg>