<svg xmlns="http://www.w3.org/2000/svg" width="900" height="1200" viewBox="0 0 900 1200" preserveAspectRatio="xMidYMid slice"><defs><linearGradient id="l49" x1="0" y1="0" x2="0.047" y2="0.711"><stop offset="0" stop-color="#272320"/><stop offset="1" stop-color="#110F0D"/></linearGradient><radialGradient id="r50" cx="0.6" cy="0.4" r="0.8"><stop offset="0" stop-color="#967C4F" stop-opacity="0.22"/><stop offset="0.6" stop-color="#967C4F" stop-opacity="0.055"/><stop offset="1" stop-color="#967C4F" stop-opacity="0"/></radialGradient></defs><rect width="900" height="1200" fill="url(#l49)"/><rect width="900" height="1200" fill="url(#r50)"/><g stroke="#5A5450" stroke-width="3" opacity="0.4" transform="rotate(5 450 600)"><line x1="-1200" y1="-40" x2="-1200" y2="1240"/><line x1="-1170" y1="-40" x2="-1170" y2="1240"/><line x1="-1140" y1="-40" x2="-1140" y2="1240"/><line x1="-1110" y1="-40" x2="-1110" y2="1240"/><line x1="-1080" y1="-40" x2="-1080" y2="1240"/><line x1="-1050" y1="-40" x2="-1050" y2="1240"/><line x1="-1020" y1="-40" x2="-1020" y2="1240"/><line x1="-990" y1="-40" x2="-990" y2="1240"/><line x1="-960" y1="-40" x2="-960" y2="1240"/><line x1="-930" y1="-40" x2="-930" y2="1240"/><line x1="-900" y1="-40" x2="-900" y2="1240"/><line x1="-870" y1="-40" x2="-870" y2="1240"/><line x1="-840" y1="-40" x2="-840" y2="1240"/><line x1="-810" y1="-40" x2="-810" y2="1240"/><line x1="-780" y1="-40" x2="-780" y2="1240"/><line x1="-750" y1="-40" x2="-750" y2="1240"/><line x1="-720" y1="-40" x2="-720" y2="1240"/><line x1="-690" y1="-40" x2="-690" y2="1240"/><line x1="-660" y1="-40" x2="-660" y2="1240"/><line x1="-630" y1="-40" x2="-630" y2="1240"/><line x1="-600" y1="-40" x2="-600" y2="1240"/><line x1="-570" y1="-40" x2="-570" y2="1240"/><line x1="-540" y1="-40" x2="-540" y2="1240"/><line x1="-510" y1="-40" x2="-510" y2="1240"/><line x1="-480" y1="-40" x2="-480" y2="1240"/><line x1="-450" y1="-40" x2="-450" y2="1240"/><line x1="-420" y1="-40" x2="-420" y2="1240"/><line x1="-390" y1="-40" x2="-390" y2="1240"/><line x1="-360" y1="-40" x2="-360" y2="1240"/><line x1="-330" y1="-40" x2="-330" y2="1240"/><line x1="-300" y1="-40" x2="-300" y2="1240"/><line x1="-270" y1="-40" x2="-270" y2="1240"/><line x1="-240" y1="-40" x2="-240" y2="1240"/><line x1="-210" y1="-40" x2="-210" y2="1240"/><line x1="-180" y1="-40" x2="-180" y2="1240"/><line x1="-150" y1="-40" x2="-150" y2="1240"/><line x1="-120" y1="-40" x2="-120" y2="1240"/><line x1="-90" y1="-40" x2="-90" y2="1240"/><line x1="-60" y1="-40" x2="-60" y2="1240"/><line x1="-30" y1="-40" x2="-30" y2="1240"/><line x1="0" y1="-40" x2="0" y2="1240"/><line x1="30" y1="-40" x2="30" y2="1240"/><line x1="60" y1="-40" x2="60" y2="1240"/><line x1="90" y1="-40" x2="90" y2="1240"/><line x1="120" y1="-40" x2="120" y2="1240"/><line x1="150" y1="-40" x2="150" y2="1240"/><line x1="180" y1="-40" x2="180" y2="1240"/><line x1="210" y1="-40" x2="210" y2="1240"/><line x1="240" y1="-40" x2="240" y2="1240"/><line x1="270" y1="-40" x2="270" y2="1240"/><line x1="300" y1="-40" x2="300" y2="1240"/><line x1="330" y1="-40" x2="330" y2="1240"/><line x1="360" y1="-40" x2="360" y2="1240"/><line x1="390" y1="-40" x2="390" y2="1240"/><line x1="420" y1="-40" x2="420" y2="1240"/><line x1="450" y1="-40" x2="450" y2="1240"/><line x1="480" y1="-40" x2="480" y2="1240"/><line x1="510" y1="-40" x2="510" y2="1240"/><line x1="540" y1="-40" x2="540" y2="1240"/><line x1="570" y1="-40" x2="570" y2="1240"/><line x1="600" y1="-40" x2="600" y2="1240"/><line x1="630" y1="-40" x2="630" y2="1240"/><line x1="660" y1="-40" x2="660" y2="1240"/><line x1="690" y1="-40" x2="690" y2="1240"/><line x1="720" y1="-40" x2="720" y2="1240"/><line x1="750" y1="-40" x2="750" y2="1240"/><line x1="780" y1="-40" x2="780" y2="1240"/><line x1="810" y1="-40" x2="810" y2="1240"/><line x1="840" y1="-40" x2="840" y2="1240"/><line x1="870" y1="-40" x2="870" y2="1240"/><line x1="900" y1="-40" x2="900" y2="1240"/><line x1="930" y1="-40" x2="930" y2="1240"/><line x1="960" y1="-40" x2="960" y2="1240"/><line x1="990" y1="-40" x2="990" y2="1240"/><line x1="1020" y1="-40" x2="1020" y2="1240"/><line x1="1050" y1="-40" x2="1050" y2="1240"/><line x1="1080" y1="-40" x2="1080" y2="1240"/><line x1="1110" y1="-40" x2="1110" y2="1240"/><line x1="1140" y1="-40" x2="1140" y2="1240"/><line x1="1170" y1="-40" x2="1170" y2="1240"/><line x1="1200" y1="-40" x2="1200" y2="1240"/><line x1="1230" y1="-40" x2="1230" y2="1240"/><line x1="1260" y1="-40" x2="1260" y2="1240"/><line x1="1290" y1="-40" x2="1290" y2="1240"/><line x1="1320" y1="-40" x2="1320" y2="1240"/><line x1="1350" y1="-40" x2="1350" y2="1240"/><line x1="1380" y1="-40" x2="1380" y2="1240"/><line x1="1410" y1="-40" x2="1410" y2="1240"/><line x1="1440" y1="-40" x2="1440" y2="1240"/><line x1="1470" y1="-40" x2="1470" y2="1240"/><line x1="1500" y1="-40" x2="1500" y2="1240"/><line x1="1530" y1="-40" x2="1530" y2="1240"/><line x1="1560" y1="-40" x2="1560" y2="1240"/><line x1="1590" y1="-40" x2="1590" y2="1240"/><line x1="1620" y1="-40" x2="1620" y2="1240"/><line x1="1650" y1="-40" x2="1650" y2="1240"/><line x1="1680" y1="-40" x2="1680" y2="1240"/><line x1="1710" y1="-40" x2="1710" y2="1240"/><line x1="1740" y1="-40" x2="1740" y2="1240"/><line x1="1770" y1="-40" x2="1770" y2="1240"/><line x1="1800" y1="-40" x2="1800" y2="1240"/><line x1="1830" y1="-40" x2="1830" y2="1240"/><line x1="1860" y1="-40" x2="1860" y2="1240"/><line x1="1890" y1="-40" x2="1890" y2="1240"/><line x1="1920" y1="-40" x2="1920" y2="1240"/><line x1="1950" y1="-40" x2="1950" y2="1240"/><line x1="1980" y1="-40" x2="1980" y2="1240"/><line x1="2010" y1="-40" x2="2010" y2="1240"/><line x1="2040" y1="-40" x2="2040" y2="1240"/><line x1="2070" y1="-40" x2="2070" y2="1240"/></g><line x1="-10" y1="600" x2="910" y2="600" stroke="#C0A77A" stroke-width="5" stroke-dasharray="6 8" opacity="0.4"/><filter id="g51"><feTurbulence type="fractalNoise" baseFrequency="0.9" numOctaves="2" stitchTiles="stitch"/><feColorMatrix type="saturate" values="0"/><feComponentTransfer><feFuncA type="linear" slope="0.05"/></feComponentTransfer></filter><rect width="100%" height="100%" filter="url(#g51)" style="mix-blend-mode:overlay"/></svg>