<svg xmlns="http://www.w3.org/2000/svg" width="900" height="1200" viewBox="0 0 900 1200" preserveAspectRatio="xMidYMid slice"><defs><linearGradient id="l52" x1="0" y1="0" x2="0.090" y2="0.787"><stop offset="0" stop-color="#110F0D"/><stop offset="1" stop-color="#1A1816"/></linearGradient><radialGradient id="r53" cx="0.45" cy="0.38" r="0.8"><stop offset="0" stop-color="#FAF8F5" stop-opacity="0.1"/><stop offset="0.6" stop-color="#FAF8F5" stop-opacity="0.025"/><stop offset="1" stop-color="#FAF8F5" stop-opacity="0"/></radialGradient></defs><rect width="900" height="1200" fill="url(#l52)"/><rect width="900" height="1200" fill="url(#r53)"/><g stroke="#5A5450" stroke-width="3" opacity="0.35" transform="rotate(-3 450 600)"><line x1="-1200" y1="-40" x2="-1200" y2="1240"/><line x1="-1154" y1="-40" x2="-1154" y2="1240"/><line x1="-1108" y1="-40" x2="-1108" y2="1240"/><line x1="-1062" y1="-40" x2="-1062" y2="1240"/><line x1="-1016" y1="-40" x2="-1016" y2="1240"/><line x1="-970" y1="-40" x2="-970" y2="1240"/><line x1="-924" y1="-40" x2="-924" y2="1240"/><line x1="-878" y1="-40" x2="-878" y2="1240"/><line x1="-832" y1="-40" x2="-832" y2="1240"/><line x1="-786" y1="-40" x2="-786" y2="1240"/><line x1="-740" y1="-40" x2="-740" y2="1240"/><line x1="-694" y1="-40" x2="-694" y2="1240"/><line x1="-648" y1="-40" x2="-648" y2="1240"/><line x1="-602" y1="-40" x2="-602" y2="1240"/><line x1="-556" y1="-40" x2="-556" y2="1240"/><line x1="-510" y1="-40" x2="-510" y2="1240"/><line x1="-464" y1="-40" x2="-464" y2="1240"/><line x1="-418" y1="-40" x2="-418" y2="1240"/><line x1="-372" y1="-40" x2="-372" y2="1240"/><line x1="-326" y1="-40" x2="-326" y2="1240"/><line x1="-280" y1="-40" x2="-280" y2="1240"/><line x1="-234" y1="-40" x2="-234" y2="1240"/><line x1="-188" y1="-40" x2="-188" y2="1240"/><line x1="-142" y1="-40" x2="-142" y2="1240"/><line x1="-96" y1="-40" x2="-96" y2="1240"/><line x1="-50" y1="-40" x2="-50" y2="1240"/><line x1="-4" y1="-40" x2="-4" y2="1240"/><line x1="42" y1="-40" x2="42" y2="1240"/><line x1="88" y1="-40" x2="88" y2="1240"/><line x1="134" y1="-40" x2="134" y2="1240"/><line x1="180" y1="-40" x2="180" y2="1240"/><line x1="226" y1="-40" x2="226" y2="1240"/><line x1="272" y1="-40" x2="272" y2="1240"/><line x1="318" y1="-40" x2="318" y2="1240"/><line x1="364" y1="-40" x2="364" y2="1240"/><line x1="410" y1="-40" x2="410" y2="1240"/><line x1="456" y1="-40" x2="456" y2="1240"/><line x1="502" y1="-40" x2="502" y2="1240"/><line x1="548" y1="-40" x2="548" y2="1240"/><line x1="594" y1="-40" x2="594" y2="1240"/><line x1="640" y1="-40" x2="640" y2="1240"/><line x1="686" y1="-40" x2="686" y2="1240"/><line x1="732" y1="-40" x2="732" y2="1240"/><line x1="778" y1="-40" x2="778" y2="1240"/><line x1="824" y1="-40" x2="824" y2="1240"/><line x1="870" y1="-40" x2="870" y2="1240"/><line x1="916" y1="-40" x2="916" y2="1240"/><line x1="962" y1="-40" x2="962" y2="1240"/><line x1="1008" y1="-40" x2="1008" y2="1240"/><line x1="1054" y1="-40" x2="1054" y2="1240"/><line x1="1100" y1="-40" x2="1100" y2="1240"/><line x1="1146" y1="-40" x2="1146" y2="1240"/><line x1="1192" y1="-40" x2="1192" y2="1240"/><line x1="1238" y1="-40" x2="1238" y2="1240"/><line x1="1284" y1="-40" x2="1284" y2="1240"/><line x1="1330" y1="-40" x2="1330" y2="1240"/><line x1="1376" y1="-40" x2="1376" y2="1240"/><line x1="1422" y1="-40" x2="1422" y2="1240"/><line x1="1468" y1="-40" x2="1468" y2="1240"/><line x1="1514" y1="-40" x2="1514" y2="1240"/><line x1="1560" y1="-40" x2="1560" y2="1240"/><line x1="1606" y1="-40" x2="1606" y2="1240"/><line x1="1652" y1="-40" x2="1652" y2="1240"/><line x1="1698" y1="-40" x2="1698" y2="1240"/><line x1="1744" y1="-40" x2="1744" y2="1240"/><line x1="1790" y1="-40" x2="1790" y2="1240"/><line x1="1836" y1="-40" x2="1836" y2="1240"/><line x1="1882" y1="-40" x2="1882" y2="1240"/><line x1="1928" y1="-40" x2="1928" y2="1240"/><line x1="1974" y1="-40" x2="1974" y2="1240"/><line x1="2020" y1="-40" x2="2020" y2="1240"/><line x1="2066" y1="-40" x2="2066" y2="1240"/></g><line x1="-10" y1="360" x2="910" y2="360" stroke="#5A5450" stroke-width="5" stroke-dasharray="3 6" opacity="0.45"/><filter id="g54"><feTurbulence type="fractalNoise" baseFrequency="0.9" numOctaves="2" stitchTiles="stitch"/><feColorMatrix type="saturate" values="0"/><feComponentTransfer><feFuncA type="linear" slope="0.05"/></feComponentTransfer></filter><rect width="100%" height="100%" filter="url(#g54)" style="mix-blend-mode:overlay"/></svg>