<svg xmlns="http://www.w3.org/2000/svg" width="900" height="1200" viewBox="0 0 900 1200" preserveAspectRatio="xMidYMid slice"><defs><linearGradient id="l37" x1="0" y1="0" x2="0.179" y2="0.883"><stop offset="0" stop-color="#1A1816"/><stop offset="1" stop-color="#272320"/></linearGradient><radialGradient id="r38" cx="0.45" cy="0.45" r="0.8"><stop offset="0" stop-color="#967C4F" stop-opacity="0.22"/><stop offset="0.6" stop-color="#967C4F" stop-opacity="0.055"/><stop offset="1" stop-color="#967C4F" stop-opacity="0"/></radialGradient></defs><rect width="900" height="1200" fill="url(#l37)"/><rect width="900" height="1200" fill="url(#r38)"/><g stroke="#5A5450" stroke-width="3" opacity="0.42" transform="rotate(-6 450 600)"><line x1="-1200" y1="-40" x2="-1200" y2="1240"/><line x1="-1178" y1="-40" x2="-1178" y2="1240"/><line x1="-1156" y1="-40" x2="-1156" y2="1240"/><line x1="-1134" y1="-40" x2="-1134" y2="1240"/><line x1="-1112" y1="-40" x2="-1112" y2="1240"/><line x1="-1090" y1="-40" x2="-1090" y2="1240"/><line x1="-1068" y1="-40" x2="-1068" y2="1240"/><line x1="-1046" y1="-40" x2="-1046" y2="1240"/><line x1="-1024" y1="-40" x2="-1024" y2="1240"/><line x1="-1002" y1="-40" x2="-1002" y2="1240"/><line x1="-980" y1="-40" x2="-980" y2="1240"/><line x1="-958" y1="-40" x2="-958" y2="1240"/><line x1="-936" y1="-40" x2="-936" y2="1240"/><line x1="-914" y1="-40" x2="-914" y2="1240"/><line x1="-892" y1="-40" x2="-892" y2="1240"/><line x1="-870" y1="-40" x2="-870" y2="1240"/><line x1="-848" y1="-40" x2="-848" y2="1240"/><line x1="-826" y1="-40" x2="-826" y2="1240"/><line x1="-804" y1="-40" x2="-804" y2="1240"/><line x1="-782" y1="-40" x2="-782" y2="1240"/><line x1="-760" y1="-40" x2="-760" y2="1240"/><line x1="-738" y1="-40" x2="-738" y2="1240"/><line x1="-716" y1="-40" x2="-716" y2="1240"/><line x1="-694" y1="-40" x2="-694" y2="1240"/><line x1="-672" y1="-40" x2="-672" y2="1240"/><line x1="-650" y1="-40" x2="-650" y2="1240"/><line x1="-628" y1="-40" x2="-628" y2="1240"/><line x1="-606" y1="-40" x2="-606" y2="1240"/><line x1="-584" y1="-40" x2="-584" y2="1240"/><line x1="-562" y1="-40" x2="-562" y2="1240"/><line x1="-540" y1="-40" x2="-540" y2="1240"/><line x1="-518" y1="-40" x2="-518" y2="1240"/><line x1="-496" y1="-40" x2="-496" y2="1240"/><line x1="-474" y1="-40" x2="-474" y2="1240"/><line x1="-452" y1="-40" x2="-452" y2="1240"/><line x1="-430" y1="-40" x2="-430" y2="1240"/><line x1="-408" y1="-40" x2="-408" y2="1240"/><line x1="-386" y1="-40" x2="-386" y2="1240"/><line x1="-364" y1="-40" x2="-364" y2="1240"/><line x1="-342" y1="-40" x2="-342" y2="1240"/><line x1="-320" y1="-40" x2="-320" y2="1240"/><line x1="-298" y1="-40" x2="-298" y2="1240"/><line x1="-276" y1="-40" x2="-276" y2="1240"/><line x1="-254" y1="-40" x2="-254" y2="1240"/><line x1="-232" y1="-40" x2="-232" y2="1240"/><line x1="-210" y1="-40" x2="-210" y2="1240"/><line x1="-188" y1="-40" x2="-188" y2="1240"/><line x1="-166" y1="-40" x2="-166" y2="1240"/><line x1="-144" y1="-40" x2="-144" y2="1240"/><line x1="-122" y1="-40" x2="-122" y2="1240"/><line x1="-100" y1="-40" x2="-100" y2="1240"/><line x1="-78" y1="-40" x2="-78" y2="1240"/><line x1="-56" y1="-40" x2="-56" y2="1240"/><line x1="-34" y1="-40" x2="-34" y2="1240"/><line x1="-12" y1="-40" x2="-12" y2="1240"/><line x1="10" y1="-40" x2="10" y2="1240"/><line x1="32" y1="-40" x2="32" y2="1240"/><line x1="54" y1="-40" x2="54" y2="1240"/><line x1="76" y1="-40" x2="76" y2="1240"/><line x1="98" y1="-40" x2="98" y2="1240"/><line x1="120" y1="-40" x2="120" y2="1240"/><line x1="142" y1="-40" x2="142" y2="1240"/><line x1="164" y1="-40" x2="164" y2="1240"/><line x1="186" y1="-40" x2="186" y2="1240"/><line x1="208" y1="-40" x2="208" y2="1240"/><line x1="230" y1="-40" x2="230" y2="1240"/><line x1="252" y1="-40" x2="252" y2="1240"/><line x1="274" y1="-40" x2="274" y2="1240"/><line x1="296" y1="-40" x2="296" y2="1240"/><line x1="318" y1="-40" x2="318" y2="1240"/><line x1="340" y1="-40" x2="340" y2="1240"/><line x1="362" y1="-40" x2="362" y2="1240"/><line x1="384" y1="-40" x2="384" y2="1240"/><line x1="406" y1="-40" x2="406" y2="1240"/><line x1="428" y1="-40" x2="428" y2="1240"/><line x1="450" y1="-40" x2="450" y2="1240"/><line x1="472" y1="-40" x2="472" y2="1240"/><line x1="494" y1="-40" x2="494" y2="1240"/><line x1="516" y1="-40" x2="516" y2="1240"/><line x1="538" y1="-40" x2="538" y2="1240"/><line x1="560" y1="-40" x2="560" y2="1240"/><line x1="582" y1="-40" x2="582" y2="1240"/><line x1="604" y1="-40" x2="604" y2="1240"/><line x1="626" y1="-40" x2="626" y2="1240"/><line x1="648" y1="-40" x2="648" y2="1240"/><line x1="670" y1="-40" x2="670" y2="1240"/><line x1="692" y1="-40" x2="692" y2="1240"/><line x1="714" y1="-40" x2="714" y2="1240"/><line x1="736" y1="-40" x2="736" y2="1240"/><line x1="758" y1="-40" x2="758" y2="1240"/><line x1="780" y1="-40" x2="780" y2="1240"/><line x1="802" y1="-40" x2="802" y2="1240"/><line x1="824" y1="-40" x2="824" y2="1240"/><line x1="846" y1="-40" x2="846" y2="1240"/><line x1="868" y1="-40" x2="868" y2="1240"/><line x1="890" y1="-40" x2="890" y2="1240"/><line x1="912" y1="-40" x2="912" y2="1240"/><line x1="934" y1="-40" x2="934" y2="1240"/><line x1="956" y1="-40" x2="956" y2="1240"/><line x1="978" y1="-40" x2="978" y2="1240"/><line x1="1000" y1="-40" x2="1000" y2="1240"/><line x1="1022" y1="-40" x2="1022" y2="1240"/><line x1="1044" y1="-40" x2="1044" y2="1240"/><line x1="1066" y1="-40" x2="1066" y2="1240"/><line x1="1088" y1="-40" x2="1088" y2="1240"/><line x1="1110" y1="-40" x2="1110" y2="1240"/><line x1="1132" y1="-40" x2="1132" y2="1240"/><line x1="1154" y1="-40" x2="1154" y2="1240"/><line x1="1176" y1="-40" x2="1176" y2="1240"/><line x1="1198" y1="-40" x2="1198" y2="1240"/><line x1="1220" y1="-40" x2="1220" y2="1240"/><line x1="1242" y1="-40" x2="1242" y2="1240"/><line x1="1264" y1="-40" x2="1264" y2="1240"/><line x1="1286" y1="-40" x2="1286" y2="1240"/><line x1="1308" y1="-40" x2="1308" y2="1240"/><line x1="1330" y1="-40" x2="1330" y2="1240"/><line x1="1352" y1="-40" x2="1352" y2="1240"/><line x1="1374" y1="-40" x2="1374" y2="1240"/><line x1="1396" y1="-40" x2="1396" y2="1240"/><line x1="1418" y1="-40" x2="1418" y2="1240"/><line x1="1440" y1="-40" x2="1440" y2="1240"/><line x1="1462" y1="-40" x2="1462" y2="1240"/><line x1="1484" y1="-40" x2="1484" y2="1240"/><line x1="1506" y1="-40" x2="1506" y2="1240"/><line x1="1528" y1="-40" x2="1528" y2="1240"/><line x1="1550" y1="-40" x2="1550" y2="1240"/><line x1="1572" y1="-40" x2="1572" y2="1240"/><line x1="1594" y1="-40" x2="1594" y2="1240"/><line x1="1616" y1="-40" x2="1616" y2="1240"/><line x1="1638" y1="-40" x2="1638" y2="1240"/><line x1="1660" y1="-40" x2="1660" y2="1240"/><line x1="1682" y1="-40" x2="1682" y2="1240"/><line x1="1704" y1="-40" x2="1704" y2="1240"/><line x1="1726" y1="-40" x2="1726" y2="1240"/><line x1="1748" y1="-40" x2="1748" y2="1240"/><line x1="1770" y1="-40" x2="1770" y2="1240"/><line x1="1792" y1="-40" x2="1792" y2="1240"/><line x1="1814" y1="-40" x2="1814" y2="1240"/><line x1="1836" y1="-40" x2="1836" y2="1240"/><line x1="1858" y1="-40" x2="1858" y2="1240"/><line x1="1880" y1="-40" x2="1880" y2="1240"/><line x1="1902" y1="-40" x2="1902" y2="1240"/><line x1="1924" y1="-40" x2="1924" y2="1240"/><line x1="1946" y1="-40" x2="1946" y2="1240"/><line x1="1968" y1="-40" x2="1968" y2="1240"/><line x1="1990" y1="-40" x2="1990" y2="1240"/><line x1="2012" y1="-40" x2="2012" y2="1240"/><line x1="2034" y1="-40" x2="2034" y2="1240"/><line x1="2056" y1="-40" x2="2056" y2="1240"/><line x1="2078" y1="-40" x2="2078" y2="1240"/></g><g stroke="#5A5450" stroke-width="3" opacity="0.3"><line x1="-20" y1="11" x2="920" y2="11"/><line x1="-20" y1="33" x2="920" y2="33"/><line x1="-20" y1="55" x2="920" y2="55"/><line x1="-20" y1="77" x2="920" y2="77"/><line x1="-20" y1="99" x2="920" y2="99"/><line x1="-20" y1="121" x2="920" y2="121"/><line x1="-20" y1="143" x2="920" y2="143"/><line x1="-20" y1="165" x2="920" y2="165"/><line x1="-20" y1="187" x2="920" y2="187"/><line x1="-20" y1="209" x2="920" y2="209"/><line x1="-20" y1="231" x2="920" y2="231"/><line x1="-20" y1="253" x2="920" y2="253"/><line x1="-20" y1="275" x2="920" y2="275"/><line x1="-20" y1="297" x2="920" y2="297"/><line x1="-20" y1="319" x2="920" y2="319"/><line x1="-20" y1="341" x2="920" y2="341"/><line x1="-20" y1="363" x2="920" y2="363"/><line x1="-20" y1="385" x2="920" y2="385"/><line x1="-20" y1="407" x2="920" y2="407"/><line x1="-20" y1="429" x2="920" y2="429"/><line x1="-20" y1="451" x2="920" y2="451"/><line x1="-20" y1="473" x2="920" y2="473"/><line x1="-20" y1="495" x2="920" y2="495"/><line x1="-20" y1="517" x2="920" y2="517"/><line x1="-20" y1="539" x2="920" y2="539"/><line x1="-20" y1="561" x2="920" y2="561"/><line x1="-20" y1="583" x2="920" y2="583"/><line x1="-20" y1="605" x2="920" y2="605"/><line x1="-20" y1="627" x2="920" y2="627"/><line x1="-20" y1="649" x2="920" y2="649"/><line x1="-20" y1="671" x2="920" y2="671"/><line x1="-20" y1="693" x2="920" y2="693"/><line x1="-20" y1="715" x2="920" y2="715"/><line x1="-20" y1="737" x2="920" y2="737"/><line x1="-20" y1="759" x2="920" y2="759"/><line x1="-20" y1="781" x2="920" y2="781"/><line x1="-20" y1="803" x2="920" y2="803"/><line x1="-20" y1="825" x2="920" y2="825"/><line x1="-20" y1="847" x2="920" y2="847"/><line x1="-20" y1="869" x2="920" y2="869"/><line x1="-20" y1="891" x2="920" y2="891"/><line x1="-20" y1="913" x2="920" y2="913"/><line x1="-20" y1="935" x2="920" y2="935"/><line x1="-20" y1="957" x2="920" y2="957"/><line x1="-20" y1="979" x2="920" y2="979"/><line x1="-20" y1="1001" x2="920" y2="1001"/><line x1="-20" y1="1023" x2="920" y2="1023"/><line x1="-20" y1="1045" x2="920" y2="1045"/><line x1="-20" y1="1067" x2="920" y2="1067"/><line x1="-20" y1="1089" x2="920" y2="1089"/><line x1="-20" y1="1111" x2="920" y2="1111"/><line x1="-20" y1="1133" x2="920" y2="1133"/><line x1="-20" y1="1155" x2="920" y2="1155"/><line x1="-20" y1="1177" x2="920" y2="1177"/><line x1="-20" y1="1199" x2="920" y2="1199"/></g><filter id="g39"><feTurbulence type="fractalNoise" baseFrequency="0.9" numOctaves="2" stitchTiles="stitch"/><feColorMatrix type="saturate" values="0"/><feComponentTransfer><feFuncA type="linear" slope="0.05"/></feComponentTransfer></filter><rect width="100%" height="100%" filter="url(#g39)" style="mix-blend-mode:overlay"/></svg>