<svg xmlns="http://www.w3.org/2000/svg" width="900" height="1200" viewBox="0 0 900 1200" preserveAspectRatio="xMidYMid slice"><defs><linearGradient id="l55" x1="0" y1="0" x2="0.008" y2="0.587"><stop offset="0" stop-color="#1A1816"/><stop offset="1" stop-color="#080706"/></linearGradient><radialGradient id="r56" cx="0.5" cy="0.55" r="0.8"><stop offset="0" stop-color="#5A5450" stop-opacity="0.26"/><stop offset="0.6" stop-color="#5A5450" stop-opacity="0.065"/><stop offset="1" stop-color="#5A5450" stop-opacity="0"/></radialGradient></defs><rect width="900" height="1200" fill="url(#l55)"/><rect width="900" height="1200" fill="url(#r56)"/><g fill="none" stroke="#3C3733" stroke-width="6" opacity="0.45"><path d="M 110.25391820627789 -60 C 42.66506599682704 360, 177.84277041572875 840, 110.25391820627789 1260"/><path d="M 427.5420819490279 -60 C 495.1836893307212 360, 359.9004745673345 840, 427.5420819490279 1260"/><path d="M 765.4779519778461 -60 C 815.6363067944357 360, 715.3195971612566 840, 765.4779519778461 1260"/></g><g stroke="#3C3733" stroke-width="3" opacity="0.4" transform="rotate(0 450 600)"><line x1="-1200" y1="-40" x2="-1200" y2="1240"/><line x1="-1000" y1="-40" x2="-1000" y2="1240"/><line x1="-800" y1="-40" x2="-800" y2="1240"/><line x1="-600" y1="-40" x2="-600" y2="1240"/><line x1="-400" y1="-40" x2="-400" y2="1240"/><line x1="-200" y1="-40" x2="-200" y2="1240"/><line x1="0" y1="-40" x2="0" y2="1240"/><line x1="200" y1="-40" x2="200" y2="1240"/><line x1="400" y1="-40" x2="400" y2="1240"/><line x1="600" y1="-40" x2="600" y2="1240"/><line x1="800" y1="-40" x2="800" y2="1240"/><line x1="1000" y1="-40" x2="1000" y2="1240"/><line x1="1200" y1="-40" x2="1200" y2="1240"/><line x1="1400" y1="-40" x2="1400" y2="1240"/><line x1="1600" y1="-40" x2="1600" y2="1240"/><line x1="1800" y1="-40" x2="1800" y2="1240"/><line x1="2000" y1="-40" x2="2000" y2="1240"/></g><filter id="g57"><feTurbulence type="fractalNoise" baseFrequency="0.9" numOctaves="2" stitchTiles="stitch"/><feColorMatrix type="saturate" values="0"/><feComponentTransfer><feFuncA type="linear" slope="0.05"/></feComponentTransfer></filter><rect width="100%" height="100%" filter="url(#g57)" style="mix-blend-mode:overlay"/></svg>