<svg xmlns="http://www.w3.org/2000/svg" width="900" height="1200" viewBox="0 0 900 1200" preserveAspectRatio="xMidYMid slice"><defs><linearGradient id="l46" x1="0" y1="0" x2="0.250" y2="0.933"><stop offset="0" stop-color="#1A1816"/><stop offset="1" stop-color="#3C3733"/></linearGradient><radialGradient id="r47" cx="0.5" cy="0.5" r="0.8"><stop offset="0" stop-color="#967C4F" stop-opacity="0.28"/><stop offset="0.6" stop-color="#967C4F" stop-opacity="0.070"/><stop offset="1" stop-color="#967C4F" stop-opacity="0"/></radialGradient></defs><rect width="900" height="1200" fill="url(#l46)"/><rect width="900" height="1200" fill="url(#r47)"/><g stroke="#7D653F" stroke-width="3" opacity="0.35"><line x1="-20" y1="17" x2="920" y2="17"/><line x1="-20" y1="51" x2="920" y2="51"/><line x1="-20" y1="85" x2="920" y2="85"/><line x1="-20" y1="119" x2="920" y2="119"/><line x1="-20" y1="153" x2="920" y2="153"/><line x1="-20" y1="187" x2="920" y2="187"/><line x1="-20" y1="221" x2="920" y2="221"/><line x1="-20" y1="255" x2="920" y2="255"/><line x1="-20" y1="289" x2="920" y2="289"/><line x1="-20" y1="323" x2="920" y2="323"/><line x1="-20" y1="357" x2="920" y2="357"/><line x1="-20" y1="391" x2="920" y2="391"/><line x1="-20" y1="425" x2="920" y2="425"/><line x1="-20" y1="459" x2="920" y2="459"/><line x1="-20" y1="493" x2="920" y2="493"/><line x1="-20" y1="527" x2="920" y2="527"/><line x1="-20" y1="561" x2="920" y2="561"/><line x1="-20" y1="595" x2="920" y2="595"/><line x1="-20" y1="629" x2="920" y2="629"/><line x1="-20" y1="663" x2="920" y2="663"/><line x1="-20" y1="697" x2="920" y2="697"/><line x1="-20" y1="731" x2="920" y2="731"/><line x1="-20" y1="765" x2="920" y2="765"/><line x1="-20" y1="799" x2="920" y2="799"/><line x1="-20" y1="833" x2="920" y2="833"/><line x1="-20" y1="867" x2="920" y2="867"/><line x1="-20" y1="901" x2="920" y2="901"/><line x1="-20" y1="935" x2="920" y2="935"/><line x1="-20" y1="969" x2="920" y2="969"/><line x1="-20" y1="1003" x2="920" y2="1003"/><line x1="-20" y1="1037" x2="920" y2="1037"/><line x1="-20" y1="1071" x2="920" y2="1071"/><line x1="-20" y1="1105" x2="920" y2="1105"/><line x1="-20" y1="1139" x2="920" y2="1139"/><line x1="-20" y1="1173" x2="920" y2="1173"/></g><g stroke="#5A5450" stroke-width="3" opacity="0.3"><line x1="-20" y1="34" x2="920" y2="34"/><line x1="-20" y1="102" x2="920" y2="102"/><line x1="-20" y1="170" x2="920" y2="170"/><line x1="-20" y1="238" x2="920" y2="238"/><line x1="-20" y1="306" x2="920" y2="306"/><line x1="-20" y1="374" x2="920" y2="374"/><line x1="-20" y1="442" x2="920" y2="442"/><line x1="-20" y1="510" x2="920" y2="510"/><line x1="-20" y1="578" x2="920" y2="578"/><line x1="-20" y1="646" x2="920" y2="646"/><line x1="-20" y1="714" x2="920" y2="714"/><line x1="-20" y1="782" x2="920" y2="782"/><line x1="-20" y1="850" x2="920" y2="850"/><line x1="-20" y1="918" x2="920" y2="918"/><line x1="-20" y1="986" x2="920" y2="986"/><line x1="-20" y1="1054" x2="920" y2="1054"/><line x1="-20" y1="1122" x2="920" y2="1122"/><line x1="-20" y1="1190" x2="920" y2="1190"/></g><filter id="g48"><feTurbulence type="fractalNoise" baseFrequency="0.9" numOctaves="2" stitchTiles="stitch"/><feColorMatrix type="saturate" values="0"/><feComponentTransfer><feFuncA type="linear" slope="0.05"/></feComponentTransfer></filter><rect width="100%" height="100%" filter="url(#g48)" style="mix-blend-mode:overlay"/></svg>