<svg xmlns="http://www.w3.org/2000/svg" width="900" height="1200" viewBox="0 0 900 1200" preserveAspectRatio="xMidYMid slice"><defs><linearGradient id="l40" x1="0" y1="0" x2="0.030" y2="0.671"><stop offset="0" stop-color="#080706"/><stop offset="1" stop-color="#1A1816"/></linearGradient><radialGradient id="r41" cx="0.55" cy="0.4" r="0.8"><stop offset="0" stop-color="#967C4F" stop-opacity="0.24"/><stop offset="0.6" stop-color="#967C4F" stop-opacity="0.060"/><stop offset="1" stop-color="#967C4F" stop-opacity="0"/></radialGradient></defs><rect width="900" height="1200" fill="url(#l40)"/><rect width="900" height="1200" fill="url(#r41)"/><g fill="none" stroke="#5A5450" stroke-width="6" opacity="0.4"><path d="M 123.43906792360391 -60 C 181.9649735377444 360, 64.9131623094634 840, 123.43906792360391 1260"/><path d="M 213.22197095703586 -60 C 137.87921093525864 360, 288.5647309788131 840, 213.22197095703586 1260"/><path d="M 327.62447039936103 -60 C 288.51356441289033 360, 366.7353763858317 840, 327.62447039936103 1260"/><path d="M 458.0019516251533 -60 C 543.4231614534638 360, 372.5807417968428 840, 458.0019516251533 1260"/><path d="M 581.0224754296703 -60 C 598.1212762512597 360, 563.9236746080809 840, 581.0224754296703 1260"/><path d="M 680.1180553329424 -60 C 590.2906728147967 360, 769.9454378510881 840, 680.1180553329424 1260"/><path d="M 760.7171879422727 -60 C 766.7659144695655 360, 754.66846141498 840, 760.7171879422727 1260"/></g><filter id="g42"><feTurbulence type="fractalNoise" baseFrequency="0.9" numOctaves="2" stitchTiles="stitch"/><feColorMatrix type="saturate" values="0"/><feComponentTransfer><feFuncA type="linear" slope="0.05"/></feComponentTransfer></filter><rect width="100%" height="100%" filter="url(#g42)" style="mix-blend-mode:overlay"/></svg>