<svg xmlns="http://www.w3.org/2000/svg" width="900" height="1200" viewBox="0 0 900 1200" preserveAspectRatio="xMidYMid slice"><defs><linearGradient id="l94" x1="0" y1="0" x2="0.067" y2="0.750"><stop offset="0" stop-color="#110F0D"/><stop offset="1" stop-color="#1A1816"/></linearGradient><radialGradient id="r95" cx="0.5" cy="0.3" r="0.8"><stop offset="0" stop-color="#967C4F" stop-opacity="0.26"/><stop offset="0.6" stop-color="#967C4F" stop-opacity="0.065"/><stop offset="1" stop-color="#967C4F" stop-opacity="0"/></radialGradient></defs><rect width="900" height="1200" fill="url(#l94)"/><rect width="900" height="1200" fill="url(#r95)"/><ellipse cx="450" cy="504" rx="288" ry="408.00000000000006" fill="none" stroke="#C0A77A" stroke-width="4" opacity="0.32"/><g stroke="#3C3733" stroke-width="3" opacity="0.28" transform="rotate(3 450 600)"><line x1="-1200" y1="-40" x2="-1200" y2="1240"/><line x1="-1040" y1="-40" x2="-1040" y2="1240"/><line x1="-880" y1="-40" x2="-880" y2="1240"/><line x1="-720" y1="-40" x2="-720" y2="1240"/><line x1="-560" y1="-40" x2="-560" y2="1240"/><line x1="-400" y1="-40" x2="-400" y2="1240"/><line x1="-240" y1="-40" x2="-240" y2="1240"/><line x1="-80" y1="-40" x2="-80" y2="1240"/><line x1="80" y1="-40" x2="80" y2="1240"/><line x1="240" y1="-40" x2="240" y2="1240"/><line x1="400" y1="-40" x2="400" y2="1240"/><line x1="560" y1="-40" x2="560" y2="1240"/><line x1="720" y1="-40" x2="720" y2="1240"/><line x1="880" y1="-40" x2="880" y2="1240"/><line x1="1040" y1="-40" x2="1040" y2="1240"/><line x1="1200" y1="-40" x2="1200" y2="1240"/><line x1="1360" y1="-40" x2="1360" y2="1240"/><line x1="1520" y1="-40" x2="1520" y2="1240"/><line x1="1680" y1="-40" x2="1680" y2="1240"/><line x1="1840" y1="-40" x2="1840" y2="1240"/><line x1="2000" y1="-40" x2="2000" y2="1240"/></g><filter id="g96"><feTurbulence type="fractalNoise" baseFrequency="0.9" numOctaves="2" stitchTiles="stitch"/><feColorMatrix type="saturate" values="0"/><feComponentTransfer><feFuncA type="linear" slope="0.05"/></feComponentTransfer></filter><rect width="100%" height="100%" filter="url(#g96)" style="mix-blend-mode:overlay"/></svg>